<svg  xmlns="http://www.w3.org/2000/svg" viewBox="0 0 24 24"><defs><style>.cls-1,.cls-2{fill: none;}.cls-1{stroke:#d80f0f;stroke-linecap:round;stroke-linejoin:round;stroke-width:1.5px;}</style></defs><g id="Layer_2" data-name="Layer 2"><g id="Layer_1-2" data-name="Layer 1"><g id="vuesax_linear_trash" data-name="vuesax linear trash"><g id="trash"><path id="Vector-10" class="cls-1" d="M21,6c-3.33-.33-6.68-.5-10-.5A58.92,58.92,0,0,0,5,5.78L3,6"/><path id="Vector-11" class="cls-1" d="M8.5,5l.22-1.31C8.88,2.71,9,2,10.69,2h2.62c1.69,0,1.82.75,2,1.67L15.5,5"/><path id="Vector-12" class="cls-1" d="M18.85,9.14,18.2,19.21c-.11,1.57-.2,2.79-3,2.79H8.79c-2.79,0-2.88-1.22-3-2.79L5.15,9.14"/><path id="Vector-13" class="cls-1" d="M10.33,16.5h3.33"/><path id="Vector-14" class="cls-1" d="M9.5,12.5h5"/><path id="Vector-15" class="cls-2" d="M0,0H24V24H0Z"/></g></g></g></g></svg>