<svg xmlns="http://www.w3.org/2000/svg" viewBox="0 0 24 24"><defs><style>.cls-1,.cls-2{fill:none;}.cls-1{stroke:#292d32;stroke-linecap:round;stroke-linejoin:round;stroke-width:1.5px;}</style></defs><g id="Layer_2" data-name="Layer 2"><g id="Layer_1-2" data-name="Layer 1"><g id="vuesax_linear_edit" data-name="vuesax linear edit"><g id="edit"><path id="Vector-6" class="cls-1" d="M11,2H9C4,2,2,4,2,9v6c0,5,2,7,7,7h6c5,0,7-2,7-7V13"/><path id="Vector-7" class="cls-1" d="M16,3,8.16,10.9a2.67,2.67,0,0,0-.66,1.32l-.43,3a1.42,1.42,0,0,0,1.08,1.7,1.3,1.3,0,0,0,.62,0l3-.43a2.85,2.85,0,0,0,1.32-.66L21,8C22.34,6.6,23,5,21,3S17.4,1.66,16,3Z"/><path id="Vector-8" class="cls-1" d="M14.91,4.15a7.14,7.14,0,0,0,4.94,4.94"/><path id="Vector-9" class="cls-2" d="M0,0H24V24H0Z"/></g></g></g></g></svg>