<svg xmlns="http://www.w3.org/2000/svg" viewBox="0 0 24 24"><defs><style>.cls-1{fill:#292d32;}.cls-2{fill:none;}</style></defs><g id="Layer_2" data-name="Layer 2"><g id="Layer_1-2" data-name="Layer 1"><g id="vuesax_outline_user-edit" data-name="vuesax outline user-edit"><g id="user-edit"><path id="Vector" class="cls-1" d="M12,12.69A5.73,5.73,0,1,1,17.72,7,5.73,5.73,0,0,1,12,12.69Zm0-9.95A4.23,4.23,0,1,0,16.23,7h0A4.24,4.24,0,0,0,12,2.74Z"/><path id="Vector-2" class="cls-1" d="M15.86,22.76a1.37,1.37,0,0,1-1.37-1.62l.19-1.35a2,2,0,0,1,.5-1l3.53-3.52A2.09,2.09,0,0,1,21.66,15a1.82,1.82,0,0,1,.31.31,2.36,2.36,0,0,1,.79,1.63A2.31,2.31,0,0,1,22,18.51L18.45,22a2,2,0,0,1-1,.51l-1.34.19A.85.85,0,0,1,15.86,22.76ZM20.33,16c-.18,0-.34.12-.57.35l-3.52,3.52a.38.38,0,0,0-.08.17L16,21.25l1.24-.18a.46.46,0,0,0,.17-.09l3.53-3.53a1,1,0,0,0,.34-.56.94.94,0,0,0-.34-.58c-.24-.24-.42-.35-.59-.35Z"/><path id="Vector-3" class="cls-1" d="M20.93,19.22l-.2,0A4,4,0,0,1,18,16.46a.74.74,0,0,1,1.43-.4,2.48,2.48,0,0,0,1.69,1.69.75.75,0,0,1-.2,1.47Z"/><path id="Vector-4" class="cls-1" d="M3.39,22.76A.75.75,0,0,1,2.65,22c0-4.25,4.17-7.71,9.29-7.71a11.24,11.24,0,0,1,3.16.46.74.74,0,0,1,.5.93.74.74,0,0,1-.92.49,9.77,9.77,0,0,0-2.74-.4c-4.3,0-7.8,2.79-7.8,6.22A.76.76,0,0,1,3.39,22.76Z"/><path id="Vector-5" class="cls-2" d="M0,0H24V24H0Z"/></g></g></g></g></svg>